<svg width="153" height="27" viewBox="0 0 153 27" fill="none" xmlns="http://www.w3.org/2000/svg">
<path d="M16.65 26.6C13.5167 26.6 10.75 26.1 8.35 25.1C5.98333 24.1 4.13333 22.65 2.8 20.75C1.46667 18.8167 0.8 16.45 0.8 13.65C0.8 10.85 1.46667 8.48333 2.8 6.55C4.13333 4.58333 5.98333 3.1 8.35 2.1C10.75 1.1 13.5167 0.599999 16.65 0.599999C19.7833 0.599999 22.5167 1.1 24.85 2.1C27.2167 3.1 29.0667 4.58333 30.4 6.55C31.7333 8.48333 32.4 10.85 32.4 13.65C32.4 16.45 31.7333 18.8167 30.4 20.75C29.0667 22.65 27.2167 24.1 24.85 25.1C22.5167 26.1 19.7833 26.6 16.65 26.6ZM16.65 21.6C18.3833 21.6 19.9333 21.3 21.3 20.7C22.7 20.0667 23.8 19.1667 24.6 18C25.4 16.8 25.8 15.35 25.8 13.65C25.8 11.95 25.4 10.5 24.6 9.3C23.8 8.06667 22.7167 7.13333 21.35 6.5C19.9833 5.86667 18.4167 5.55 16.65 5.55C14.9167 5.55 13.35 5.86667 11.95 6.5C10.55 7.13333 9.43333 8.05 8.6 9.25C7.8 10.45 7.4 11.9167 7.4 13.65C7.4 15.35 7.8 16.8 8.6 18C9.4 19.1667 10.5 20.0667 11.9 20.7C13.3 21.3 14.8833 21.6 16.65 21.6ZM37.2051 1.15H43.7051V26H37.2051V1.15ZM55.2551 0.599999C56.7884 0.599999 58.2051 0.799999 59.5051 1.2C60.8051 1.6 61.9384 2.21667 62.9051 3.05C63.8717 3.88333 64.6217 4.95 65.1551 6.25C65.6884 7.51667 65.9551 9.03333 65.9551 10.8V26H59.4551V11.95C59.4551 9.85 58.9384 8.31667 57.9051 7.35C56.9051 6.35 55.2551 5.85 52.9551 5.85C51.2217 5.85 49.6551 6.18333 48.2551 6.85C46.8551 7.51667 45.7217 8.36667 44.8551 9.4C43.9884 10.4 43.4884 11.45 43.3551 12.55L43.3051 10C43.4717 8.83333 43.8551 7.7 44.4551 6.6C45.0551 5.5 45.8551 4.5 46.8551 3.6C47.8884 2.66667 49.1051 1.93333 50.5051 1.4C51.9051 0.866666 53.4884 0.599999 55.2551 0.599999ZM76.9051 0.599999C78.4384 0.599999 79.8551 0.799999 81.1551 1.2C82.4551 1.6 83.5884 2.21667 84.5551 3.05C85.5217 3.88333 86.2717 4.95 86.8051 6.25C87.3717 7.51667 87.6551 9.03333 87.6551 10.8V26H81.1551V11.95C81.1551 9.85 80.6384 8.31667 79.6051 7.35C78.5717 6.35 76.9051 5.85 74.6051 5.85C72.8717 5.85 71.3051 6.18333 69.9051 6.85C68.5051 7.51667 67.3717 8.36667 66.5051 9.4C65.6384 10.4 65.1551 11.45 65.0551 12.55L64.9551 9.85C65.1217 8.75 65.5217 7.65 66.1551 6.55C66.7884 5.45 67.6217 4.45 68.6551 3.55C69.6884 2.65 70.8884 1.93333 72.2551 1.4C73.6551 0.866666 75.2051 0.599999 76.9051 0.599999ZM105.653 26.55C103.186 26.55 100.936 26.0167 98.9027 24.95C96.9027 23.85 95.3027 22.3333 94.1027 20.4C92.9361 18.4333 92.3527 16.1667 92.3527 13.6C92.3527 10.9667 92.9527 8.68333 94.1527 6.75C95.3527 4.81667 96.9694 3.31667 99.0027 2.25C101.069 1.15 103.403 0.599999 106.003 0.599999C108.869 0.599999 111.169 1.18333 112.903 2.35C114.669 3.48333 115.953 5.03333 116.753 7C117.553 8.96667 117.953 11.1667 117.953 13.6C117.953 15.0667 117.719 16.5667 117.253 18.1C116.786 19.6 116.069 21 115.103 22.3C114.136 23.5667 112.869 24.6 111.303 25.4C109.736 26.1667 107.853 26.55 105.653 26.55ZM107.753 21.55C109.719 21.55 111.419 21.2167 112.853 20.55C114.286 19.8833 115.386 18.95 116.153 17.75C116.919 16.55 117.303 15.1667 117.303 13.6C117.303 11.9 116.903 10.4667 116.103 9.3C115.336 8.1 114.236 7.2 112.803 6.6C111.403 5.96667 109.719 5.65 107.753 5.65C104.986 5.65 102.836 6.38333 101.303 7.85C99.7694 9.28333 99.0027 11.2 99.0027 13.6C99.0027 15.2 99.3694 16.6 100.103 17.8C100.836 18.9667 101.853 19.8833 103.153 20.55C104.486 21.2167 106.019 21.55 107.753 21.55ZM117.303 1.15H123.803V26H117.753C117.753 26 117.703 25.6833 117.603 25.05C117.536 24.3833 117.469 23.55 117.403 22.55C117.336 21.55 117.303 20.5667 117.303 19.6V1.15ZM128.686 17.75H134.686C135.052 18.8833 135.802 19.8167 136.936 20.55C138.102 21.25 139.619 21.6 141.486 21.6C142.752 21.6 143.736 21.4833 144.436 21.25C145.136 21.0167 145.619 20.6833 145.886 20.25C146.152 19.7833 146.286 19.2667 146.286 18.7C146.286 18 146.069 17.4667 145.636 17.1C145.202 16.7 144.536 16.3833 143.636 16.15C142.736 15.9167 141.586 15.7 140.186 15.5C138.786 15.2667 137.436 14.9833 136.136 14.65C134.836 14.3167 133.686 13.8833 132.686 13.35C131.686 12.7833 130.886 12.0833 130.286 11.25C129.719 10.3833 129.436 9.33333 129.436 8.1C129.436 6.9 129.719 5.83333 130.286 4.9C130.886 3.96667 131.702 3.18333 132.736 2.55C133.802 1.91667 135.036 1.43333 136.436 1.1C137.869 0.766666 139.402 0.599999 141.036 0.599999C143.502 0.599999 145.552 0.966666 147.186 1.7C148.819 2.4 150.036 3.4 150.836 4.7C151.669 5.96667 152.086 7.43333 152.086 9.1H146.336C146.069 7.86667 145.536 6.98333 144.736 6.45C143.936 5.88333 142.702 5.6 141.036 5.6C139.402 5.6 138.169 5.85 137.336 6.35C136.502 6.85 136.086 7.53333 136.086 8.4C136.086 9.1 136.336 9.65 136.836 10.05C137.369 10.4167 138.136 10.7167 139.136 10.95C140.169 11.1833 141.452 11.4333 142.986 11.7C144.286 11.9667 145.519 12.2667 146.686 12.6C147.886 12.9333 148.952 13.3667 149.886 13.9C150.819 14.4 151.552 15.0833 152.086 15.95C152.652 16.7833 152.936 17.85 152.936 19.15C152.936 20.75 152.469 22.1 151.536 23.2C150.636 24.3 149.336 25.15 147.636 25.75C145.936 26.3167 143.902 26.6 141.536 26.6C139.436 26.6 137.619 26.3833 136.086 25.95C134.586 25.4833 133.336 24.9 132.336 24.2C131.336 23.4667 130.552 22.7 129.986 21.9C129.452 21.0667 129.086 20.2833 128.886 19.55C128.686 18.8167 128.619 18.2167 128.686 17.75Z" fill="black" fill-opacity="0.8"/>
</svg>
